{
  "asset": {
    "version": "2.0",
    "generator": "ISRO Vikram Lander 3D Engine"
  },
  "scene": 0,
  "scenes": [
    {
      "name": "VikramLanderScene",
      "nodes": [0]
    }
  ],
  "nodes": [
    {
      "name": "VikramLanderRoot",
      "children": [1, 2, 3, 4, 5, 6, 7]
    },
    {
      "name": "LanderBus",
      "mesh": 0
    },
    {
      "name": "SolarPanelLeft",
      "mesh": 1,
      "translation": [-1.12, 1.2, 0]
    },
    {
      "name": "SolarPanelRight",
      "mesh": 1,
      "translation": [1.12, 1.2, 0]
    },
    {
      "name": "TopDeck",
      "mesh": 2,
      "translation": [0, 1.95, 0]
    },
    {
      "name": "AntennaDish",
      "mesh": 3,
      "translation": [0.5, 2.3, 0.5]
    },
    {
      "name": "EngineNozzles",
      "mesh": 4,
      "translation": [0, 0.35, 0]
    },
    {
      "name": "LandingLegs",
      "mesh": 5,
      "translation": [0, 0, 0]
    }
  ],
  "meshes": [
    {
      "name": "BusMesh",
      "primitives": [
        {
          "attributes": {
            "POSITION": 0,
            "NORMAL": 1
          },
          "indices": 2,
          "material": 0
        }
      ]
    },
    {
      "name": "SolarMesh",
      "primitives": [
        {
          "attributes": {
            "POSITION": 0,
            "NORMAL": 1
          },
          "indices": 2,
          "material": 1
        }
      ]
    },
    {
      "name": "DeckMesh",
      "primitives": [
        {
          "attributes": {
            "POSITION": 0,
            "NORMAL": 1
          },
          "indices": 2,
          "material": 2
        }
      ]
    },
    {
      "name": "DishMesh",
      "primitives": [
        {
          "attributes": {
            "POSITION": 0,
            "NORMAL": 1
          },
          "indices": 2,
          "material": 2
        }
      ]
    },
    {
      "name": "NozzleMesh",
      "primitives": [
        {
          "attributes": {
            "POSITION": 0,
            "NORMAL": 1
          },
          "indices": 2,
          "material": 3
        }
      ]
    },
    {
      "name": "LegMesh",
      "primitives": [
        {
          "attributes": {
            "POSITION": 0,
            "NORMAL": 1
          },
          "indices": 2,
          "material": 2
        }
      ]
    }
  ],
  "materials": [
    {
      "name": "GoldFoil",
      "pbrMetallicRoughness": {
        "baseColorFactor": [0.88, 0.67, 0.0, 1.0],
        "metallicFactor": 0.85,
        "roughnessFactor": 0.25
      }
    },
    {
      "name": "SolarPanel",
      "pbrMetallicRoughness": {
        "baseColorFactor": [0.0, 0.1, 0.27, 1.0],
        "metallicFactor": 0.9,
        "roughnessFactor": 0.1
      }
    },
    {
      "name": "StructuralMetal",
      "pbrMetallicRoughness": {
        "baseColorFactor": [0.3, 0.35, 0.42, 1.0],
        "metallicFactor": 0.7,
        "roughnessFactor": 0.3
      }
    },
    {
      "name": "EngineDark",
      "pbrMetallicRoughness": {
        "baseColorFactor": [0.1, 0.12, 0.16, 1.0],
        "metallicFactor": 0.95,
        "roughnessFactor": 0.1
      }
    }
  ],
  "accessors": [
    {
      "bufferView": 0,
      "componentType": 5126,
      "count": 8,
      "type": "VEC3",
      "max": [1.1, 0.7, 1.1],
      "min": [-1.1, -0.7, -1.1]
    },
    {
      "bufferView": 1,
      "componentType": 5126,
      "count": 8,
      "type": "VEC3",
      "max": [1.0, 1.0, 1.0],
      "min": [-1.0, -1.0, -1.0]
    },
    {
      "bufferView": 2,
      "componentType": 5123,
      "count": 36,
      "type": "SCALAR",
      "max": [7],
      "min": [0]
    }
  ],
  "bufferViews": [
    {
      "buffer": 0,
      "byteOffset": 0,
      "byteLength": 96,
      "target": 34962
    },
    {
      "buffer": 0,
      "byteOffset": 96,
      "byteLength": 96,
      "target": 34962
    },
    {
      "buffer": 0,
      "byteOffset": 192,
      "byteLength": 72,
      "target": 34963
    }
  ],
  "buffers": [
    {
      "uri": "data:application/octet-stream;base64,",
      "byteLength": 264
    }
  ]
}
